<svg xmlns="http://www.w3.org/2000/svg" version="1.1" xmlns:xlink="http://www.w3.org/1999/xlink" xmlns:svgjs="http://svgjs.com/svgjs" width="1440" height="800" preserveAspectRatio="none" viewBox="0 0 1440 800"><g mask="url(&quot;#SvgjsMask1017&quot;)" fill="none"><rect width="1440" height="800" x="0" y="0" fill="rgba(237, 165, 50, 1)"></rect><path d="M0,455.141C104.527,481.26,216.953,534.953,314.776,489.8C413.49,444.236,458.527,328.545,495.654,226.358C530.75,129.761,532.604,27.236,519.889,-74.749C506.972,-178.353,500.832,-297.251,421.859,-365.543C343.71,-433.122,224.399,-399.507,122.779,-418.148C34.1,-434.415,-49.797,-489.211,-137.46,-468.145C-226.542,-446.738,-284.736,-367.387,-351.138,-304.263C-424.832,-234.207,-542.716,-180.252,-547.159,-78.67C-551.68,24.693,-433.309,86.582,-371.874,169.829C-324.578,233.917,-290.86,305.77,-227.666,354.255C-160.448,405.826,-82.195,434.602,0,455.141" fill="#eb9918"></path><path d="M1440 1146.872C1502.91 1134.888 1552.3220000000001 1093.226 1606.528 1059.123 1661.325 1024.648 1729.242 1003.1469999999999 1759.4560000000001 945.89 1790.143 887.735 1779.3029999999999 817.622 1768.16 752.818 1757.26 689.4300000000001 1732.211 631.293 1696.196 578.004 1656.248 518.8969999999999 1618.624 444.391 1549.048 428.618 1479.482 412.848 1419.778 478.033 1351.898 499.952 1286.434 521.091 1211.9859999999999 513.275 1157.366 555.096 1097.174 601.182 1050.972 667.6030000000001 1035.901 741.899 1020.4449999999999 818.093 1039.5140000000001 897.4590000000001 1073.759 967.2570000000001 1107.414 1035.853 1158.409 1097.774 1227.01 1131.4180000000001 1292.242 1163.41 1368.628 1160.468 1440 1146.872" fill="#efb14c"></path></g><defs><mask id="SvgjsMask1017"><rect width="1440" height="800" fill="#ffffff"></rect></mask></defs></svg>