<svg width="129" height="118" viewBox="0 0 129 118" fill="none" xmlns="http://www.w3.org/2000/svg">
<path fill-rule="evenodd" clip-rule="evenodd" d="M90.4333 59.5754C89.4997 60.5126 89.0933 61.618 89.0135 62.0673L88.3124 66.0108L5.67239 66.0109C3.0323 66.0109 0.89209 63.8707 0.89209 61.2306C0.89209 58.5905 3.0323 56.4503 5.67239 56.4503L81.0131 56.4503C83.07 52.5716 87.3555 48.4041 94.8168 48.4041C99.7506 48.4041 103.415 50.3072 105.873 52.938C106.922 54.0608 107.713 55.2716 108.298 56.4503L124.112 56.4503C126.752 56.4503 128.892 58.5905 128.892 61.2306C128.892 63.8707 126.752 66.0109 124.112 66.0109L100.907 66.0108L100.206 62.0673C100.093 61.4292 99.6939 60.3286 98.8873 59.4654C98.2128 58.7436 97.0673 57.9647 94.8168 57.9647C92.5462 57.9647 91.2424 58.7632 90.4333 59.5754Z" fill="#5BBD53"/>
<path fill-rule="evenodd" clip-rule="evenodd" d="M6.63135 74.1656C6.63135 71.5255 8.77156 69.3853 11.4116 69.3853H35.729C38.369 69.3853 40.5093 71.5255 40.5093 74.1656C40.5093 76.8056 38.369 78.9459 35.729 78.9459H11.4116C8.77156 78.9459 6.63135 76.8056 6.63135 74.1656Z" fill="#C8EAFE"/>
<path fill-rule="evenodd" clip-rule="evenodd" d="M19.1436 100.035C19.1436 97.3953 21.2838 95.2551 23.9239 95.2551L51.2624 95.2551C53.9025 95.2551 56.0427 97.3953 56.0427 100.035C56.0427 102.676 53.9024 104.816 51.2624 104.816L23.9239 104.816C21.2838 104.816 19.1436 102.676 19.1436 100.035Z" fill="#C8EAFE"/>
<path fill-rule="evenodd" clip-rule="evenodd" d="M34.52 113.119C34.52 110.479 36.6602 108.338 39.3003 108.338L69.2121 108.338C71.8522 108.338 73.9924 110.479 73.9924 113.119C73.9924 115.759 71.8522 117.899 69.2121 117.899L39.3003 117.899C36.6602 117.899 34.52 115.759 34.52 113.119Z" fill="white"/>
<path fill-rule="evenodd" clip-rule="evenodd" d="M77.355 113.119C77.355 110.479 79.4952 108.338 82.1353 108.338L90.0878 108.338C92.7279 108.338 94.8681 110.479 94.8681 113.119C94.8681 115.759 92.7279 117.899 90.0878 117.899L82.1353 117.899C79.4952 117.899 77.355 115.759 77.355 113.119Z" fill="white"/>
<path fill-rule="evenodd" clip-rule="evenodd" d="M59.9136 100.035C59.9136 97.3953 62.0538 95.2551 64.6939 95.2551L108.26 95.2551C110.9 95.2551 113.04 97.3953 113.04 100.035C113.04 102.675 110.9 104.816 108.26 104.816L64.6939 104.816C62.0538 104.816 59.9136 102.675 59.9136 100.035Z" fill="#C8EAFE"/>
<path fill-rule="evenodd" clip-rule="evenodd" d="M85.3076 87.1004C85.3076 84.4603 87.4478 82.3201 90.0879 82.3201L116.177 82.3201C118.817 82.3201 120.957 84.4603 120.957 87.1004C120.957 89.7405 118.817 91.8807 116.177 91.8807L90.0879 91.8807C87.4478 91.8807 85.3076 89.7405 85.3076 87.1004Z" fill="#C8EAFE"/>
<path fill-rule="evenodd" clip-rule="evenodd" d="M10.5093 87.1004C10.5093 84.4603 12.6495 82.3201 15.2896 82.3201L25.2064 82.3201C27.8465 82.3201 29.9867 84.4603 29.9867 87.1004C29.9867 89.7405 27.8465 91.8807 25.2064 91.8807L15.2896 91.8807C12.6495 91.8807 10.5093 89.7405 10.5093 87.1004Z" fill="#C8EAFE"/>
<path fill-rule="evenodd" clip-rule="evenodd" d="M33.3989 87.1004C33.3989 84.4603 35.5391 82.3201 38.1792 82.3201L48.096 82.3201C50.7361 82.3201 52.8763 84.4603 52.8763 87.1004C52.8763 89.7405 50.7361 91.8807 48.096 91.8807L38.1792 91.8807C35.5391 91.8807 33.3989 89.7405 33.3989 87.1004Z" fill="#C8EAFE"/>
<path fill-rule="evenodd" clip-rule="evenodd" d="M31.7798 5.0848C31.7798 2.44472 33.92 0.304505 36.5601 0.304505L87.3476 0.304509C89.9877 0.304509 92.1279 2.44472 92.1279 5.08481C92.1279 7.7249 89.9877 9.86511 87.3476 9.86511L36.5601 9.8651C33.92 9.8651 31.7798 7.72489 31.7798 5.0848Z" fill="white"/>
<path fill-rule="evenodd" clip-rule="evenodd" d="M3.89111 43.8896C3.89111 41.2495 6.03133 39.1093 8.67141 39.1093L31.9221 39.1093C34.5621 39.1093 36.7024 41.2495 36.7024 43.8896C36.7024 46.5296 34.5621 48.6699 31.9221 48.6699L8.67141 48.6699C6.03133 48.6699 3.89111 46.5296 3.89111 43.8896Z" fill="#C8EAFE"/>
<path fill-rule="evenodd" clip-rule="evenodd" d="M106.534 43.8896C106.534 41.2495 108.674 39.1093 111.314 39.1093L120.716 39.1093C123.356 39.1093 125.497 41.2495 125.497 43.8896C125.497 46.5296 123.356 48.6699 120.716 48.6699L111.314 48.6699C108.674 48.6699 106.534 46.5296 106.534 43.8896Z" fill="#C8EAFE"/>
<path fill-rule="evenodd" clip-rule="evenodd" d="M88.9766 30.9547C88.9766 28.3146 91.1168 26.1744 93.7569 26.1744L117.008 26.1744C119.648 26.1744 121.788 28.3146 121.788 30.9547C121.788 33.5948 119.648 35.735 117.008 35.735L93.7569 35.735C91.1168 35.735 88.9766 33.5948 88.9766 30.9547Z" fill="#C8EAFE"/>
<path fill-rule="evenodd" clip-rule="evenodd" d="M11.3398 30.9547C11.3398 28.3146 13.4801 26.1744 16.1201 26.1744H40.1312C42.7713 26.1744 44.9115 28.3146 44.9115 30.9547C44.9115 33.5948 42.7713 35.735 40.1312 35.735H16.1201C13.4801 35.735 11.3398 33.5948 11.3398 30.9547Z" fill="#C8EAFE"/>
<path fill-rule="evenodd" clip-rule="evenodd" d="M39.1885 18.0197C39.1885 15.3797 41.3287 13.2394 43.9688 13.2394H109.09C111.731 13.2394 113.871 15.3797 113.871 18.0197C113.871 20.6598 111.731 22.8 109.09 22.8H43.9688C41.3287 22.8 39.1885 20.6598 39.1885 18.0197Z" fill="#C8EAFE"/>
<path fill-rule="evenodd" clip-rule="evenodd" d="M19.9746 18.0197C19.9746 15.3797 22.1148 13.2394 24.7549 13.2394L30.6489 13.2394C33.289 13.2394 35.4292 15.3797 35.4292 18.0197C35.4292 20.6598 33.289 22.8 30.6489 22.8L24.7549 22.8C22.1148 22.8 19.9746 20.6598 19.9746 18.0197Z" fill="#C8EAFE"/>
</svg>
