<svg width="129" height="118" viewBox="0 0 129 118" fill="none" xmlns="http://www.w3.org/2000/svg">
<path fill-rule="evenodd" clip-rule="evenodd" d="M89.6892 59.5754C88.7555 60.5126 88.3492 61.618 88.2693 62.0673L87.5682 66.0108L4.92825 66.0109C2.28816 66.0109 0.147949 63.8707 0.147949 61.2306C0.147949 58.5905 2.28816 56.4503 4.92825 56.4503L80.269 56.4503C82.3259 52.5716 86.6114 48.4041 94.0727 48.4041C99.0065 48.4041 102.67 50.3072 105.129 52.938C106.178 54.0608 106.969 55.2716 107.554 56.4503L123.368 56.4503C126.008 56.4503 128.148 58.5905 128.148 61.2306C128.148 63.8707 126.008 66.0109 123.368 66.0109L100.163 66.0108L99.4621 62.0673C99.3486 61.4292 98.9497 60.3286 98.1431 59.4654C97.4687 58.7436 96.3231 57.9647 94.0727 57.9647C91.8021 57.9647 90.4983 58.7632 89.6892 59.5754Z" fill="#5BBD53"/>
<path fill-rule="evenodd" clip-rule="evenodd" d="M5.88721 74.1656C5.88721 71.5255 8.02742 69.3853 10.6675 69.3853H34.9848C37.6249 69.3853 39.7651 71.5255 39.7651 74.1656C39.7651 76.8056 37.6249 78.9459 34.9848 78.9459H10.6675C8.02742 78.9459 5.88721 76.8056 5.88721 74.1656Z" fill="#73AEFF"/>
<path fill-rule="evenodd" clip-rule="evenodd" d="M18.3994 100.035C18.3994 97.3953 20.5396 95.2551 23.1797 95.2551L50.5182 95.2551C53.1583 95.2551 55.2985 97.3953 55.2985 100.035C55.2985 102.676 53.1583 104.816 50.5182 104.816L23.1797 104.816C20.5396 104.816 18.3994 102.676 18.3994 100.035Z" fill="#73AEFF"/>
<path fill-rule="evenodd" clip-rule="evenodd" d="M33.7759 113.119C33.7759 110.479 35.9161 108.338 38.5562 108.338L68.468 108.338C71.1081 108.338 73.2483 110.479 73.2483 113.119C73.2483 115.759 71.1081 117.899 68.468 117.899L38.5562 117.899C35.9161 117.899 33.7759 115.759 33.7759 113.119Z" fill="#A8CDFF"/>
<path fill-rule="evenodd" clip-rule="evenodd" d="M76.6108 113.119C76.6108 110.479 78.7511 108.338 81.3911 108.338L89.3437 108.338C91.9837 108.338 94.124 110.479 94.124 113.119C94.124 115.759 91.9837 117.899 89.3437 117.899L81.3911 117.899C78.7511 117.899 76.6108 115.759 76.6108 113.119Z" fill="#A8CDFF"/>
<path fill-rule="evenodd" clip-rule="evenodd" d="M59.1694 100.035C59.1694 97.3953 61.3096 95.2551 63.9497 95.2551L107.516 95.2551C110.156 95.2551 112.296 97.3953 112.296 100.035C112.296 102.675 110.156 104.816 107.516 104.816L63.9497 104.816C61.3096 104.816 59.1694 102.675 59.1694 100.035Z" fill="#73AEFF"/>
<path fill-rule="evenodd" clip-rule="evenodd" d="M84.5635 87.1004C84.5635 84.4603 86.7037 82.3201 89.3438 82.3201L115.432 82.3201C118.073 82.3201 120.213 84.4603 120.213 87.1004C120.213 89.7405 118.073 91.8807 115.432 91.8807L89.3438 91.8807C86.7037 91.8807 84.5635 89.7405 84.5635 87.1004Z" fill="#73AEFF"/>
<path fill-rule="evenodd" clip-rule="evenodd" d="M9.76514 87.1004C9.76514 84.4603 11.9053 82.3201 14.5454 82.3201L24.4622 82.3201C27.1023 82.3201 29.2425 84.4603 29.2425 87.1004C29.2425 89.7405 27.1023 91.8807 24.4622 91.8807L14.5454 91.8807C11.9053 91.8807 9.76514 89.7405 9.76514 87.1004Z" fill="#73AEFF"/>
<path fill-rule="evenodd" clip-rule="evenodd" d="M32.6548 87.1004C32.6548 84.4603 34.795 82.3201 37.4351 82.3201L47.3519 82.3201C49.992 82.3201 52.1322 84.4603 52.1322 87.1004C52.1322 89.7405 49.992 91.8807 47.3519 91.8807L37.4351 91.8807C34.795 91.8807 32.6548 89.7405 32.6548 87.1004Z" fill="#73AEFF"/>
<path fill-rule="evenodd" clip-rule="evenodd" d="M31.0356 5.0848C31.0356 2.44472 33.1759 0.304505 35.8159 0.304505L86.6035 0.304509C89.2436 0.304509 91.3838 2.44472 91.3838 5.08481C91.3838 7.7249 89.2436 9.86511 86.6035 9.86511L35.8159 9.8651C33.1759 9.8651 31.0356 7.72489 31.0356 5.0848Z" fill="#A8CDFF"/>
<path fill-rule="evenodd" clip-rule="evenodd" d="M3.14697 43.8896C3.14697 41.2495 5.28719 39.1093 7.92727 39.1093L31.1779 39.1093C33.818 39.1093 35.9582 41.2495 35.9582 43.8896C35.9582 46.5296 33.818 48.6699 31.1779 48.6699L7.92727 48.6699C5.28719 48.6699 3.14697 46.5296 3.14697 43.8896Z" fill="#73AEFF"/>
<path fill-rule="evenodd" clip-rule="evenodd" d="M105.79 43.8896C105.79 41.2495 107.93 39.1093 110.57 39.1093L119.972 39.1093C122.612 39.1093 124.752 41.2495 124.752 43.8896C124.752 46.5296 122.612 48.6699 119.972 48.6699L110.57 48.6699C107.93 48.6699 105.79 46.5296 105.79 43.8896Z" fill="#73AEFF"/>
<path fill-rule="evenodd" clip-rule="evenodd" d="M88.2324 30.9547C88.2324 28.3146 90.3726 26.1744 93.0127 26.1744L116.263 26.1744C118.903 26.1744 121.044 28.3146 121.044 30.9547C121.044 33.5948 118.903 35.735 116.263 35.735L93.0127 35.735C90.3726 35.735 88.2324 33.5948 88.2324 30.9547Z" fill="#73AEFF"/>
<path fill-rule="evenodd" clip-rule="evenodd" d="M10.5957 30.9547C10.5957 28.3146 12.7359 26.1744 15.376 26.1744H39.3871C42.0272 26.1744 44.1674 28.3146 44.1674 30.9547C44.1674 33.5948 42.0272 35.735 39.3871 35.735H15.376C12.7359 35.735 10.5957 33.5948 10.5957 30.9547Z" fill="#73AEFF"/>
<path fill-rule="evenodd" clip-rule="evenodd" d="M38.4443 18.0197C38.4443 15.3797 40.5845 13.2394 43.2246 13.2394H108.346C110.986 13.2394 113.127 15.3797 113.127 18.0197C113.127 20.6598 110.986 22.8 108.346 22.8H43.2246C40.5845 22.8 38.4443 20.6598 38.4443 18.0197Z" fill="#73AEFF"/>
<path fill-rule="evenodd" clip-rule="evenodd" d="M19.2305 18.0197C19.2305 15.3797 21.3707 13.2394 24.0108 13.2394L29.9047 13.2394C32.5448 13.2394 34.685 15.3797 34.685 18.0197C34.685 20.6598 32.5448 22.8 29.9047 22.8L24.0108 22.8C21.3707 22.8 19.2305 20.6598 19.2305 18.0197Z" fill="#73AEFF"/>
</svg>
