<svg width="128" height="128" viewBox="0 0 128 128" fill="none" xmlns="http://www.w3.org/2000/svg">
<path fill-rule="evenodd" clip-rule="evenodd" d="M64 118.519C94.1097 118.519 118.519 94.1097 118.519 64C118.519 33.8903 94.1097 9.48148 64 9.48148C33.8903 9.48148 9.48148 33.8903 9.48148 64C9.48148 94.1097 33.8903 118.519 64 118.519ZM64 128C99.3462 128 128 99.3462 128 64C128 28.6538 99.3462 0 64 0C28.6538 0 0 28.6538 0 64C0 99.3462 28.6538 128 64 128Z" fill="#E6E6E6"/>
<path d="M28.2483 65.8116C28.2483 76.1598 42.2626 87.1048 52.0828 93.5724C46.795 86.3862 38.1709 74.4351 38.1709 65.8116C38.1709 57.1881 46.795 42.8869 52.0828 33.5448C42.2626 42.1683 28.2483 55.4634 28.2483 65.8116Z" fill="#E6E6E6"/>
<path fill-rule="evenodd" clip-rule="evenodd" d="M54.3194 30.8179C55.6523 31.9164 56.0033 33.8226 55.15 35.3289C54.6838 36.1519 54.1963 37.0056 53.6946 37.8842C51.3047 42.0694 48.5922 46.8195 46.3177 51.5159C43.4957 57.3427 41.7018 62.4054 41.7018 65.8098C41.7018 69.1264 43.4362 73.5711 46.2092 78.4538C48.9102 83.2096 52.2717 87.837 54.9193 91.4323C55.9378 92.8154 55.8251 94.7345 54.6518 95.9872C53.4785 97.24 51.582 97.4661 50.1505 96.524C45.1558 93.237 38.9567 88.7261 33.9674 83.6279C29.1264 78.681 24.7173 72.475 24.7173 65.8098C24.7173 62.4443 25.8465 59.0958 27.4601 55.9789C29.0854 52.8395 31.3131 49.7229 33.775 46.7616C38.6939 40.8449 44.8288 35.2179 49.7624 30.8888C51.0609 29.7495 52.9866 29.7195 54.3194 30.8179ZM33.7228 59.2642C32.4019 61.8157 31.7793 64.0053 31.7793 65.8098C31.7793 69.0883 33.8471 72.9697 37.5745 77.1218C35.8703 73.3888 34.6398 69.4718 34.6398 65.8098C34.6398 61.9148 36.046 57.3617 37.9301 52.8863C36.2191 55.0751 34.7813 57.2197 33.7228 59.2642Z" fill="#E6E6E6"/>
<path d="M99.7517 65.8116C99.7517 76.1598 85.7374 87.1048 75.9172 93.5724C81.205 86.3862 89.8291 74.4351 89.8291 65.8116C89.8291 57.1881 81.205 42.8869 75.9172 33.5448C85.7374 42.1683 99.7517 55.4634 99.7517 65.8116Z" fill="#E6E6E6"/>
<path fill-rule="evenodd" clip-rule="evenodd" d="M73.6806 30.8179C72.3477 31.9164 71.9967 33.8226 72.85 35.3289C73.3162 36.1519 73.8037 37.0056 74.3054 37.8842C76.6953 42.0694 79.4078 46.8195 81.6823 51.5159C84.5043 57.3427 86.2982 62.4054 86.2982 65.8098C86.2982 69.1264 84.5638 73.5711 81.7908 78.4538C79.0898 83.2096 75.7283 87.837 73.0807 91.4323C72.0622 92.8154 72.1749 94.7345 73.3482 95.9872C74.5215 97.24 76.418 97.4661 77.8495 96.524C82.8442 93.237 89.0433 88.7261 94.0326 83.6279C98.8736 78.681 103.283 72.475 103.283 65.8098C103.283 62.4443 102.154 59.0958 100.54 55.9789C98.9146 52.8395 96.6869 49.7229 94.225 46.7616C89.3061 40.8449 83.1712 35.2179 78.2376 30.8888C76.9391 29.7495 75.0134 29.7195 73.6806 30.8179ZM94.2772 59.2642C95.5981 61.8157 96.2207 64.0053 96.2207 65.8098C96.2207 69.0883 94.1529 72.9697 90.4255 77.1218C92.1297 73.3888 93.3602 69.4718 93.3602 65.8098C93.3602 61.9148 91.954 57.3617 90.0699 52.8863C91.7809 55.0751 93.2187 57.2197 94.2772 59.2642Z" fill="#E6E6E6"/>
</svg>
