<svg xmlns="http://www.w3.org/2000/svg" version="1.1" xmlns:xlink="http://www.w3.org/1999/xlink" xmlns:svgjs="http://svgjs.com/svgjs" width="1440" height="600" preserveAspectRatio="none" viewBox="0 0 1440 600"><g mask="url(&quot;#SvgjsMask1081&quot;)" fill="none"><rect width="1440" height="600" x="0" y="0" fill="rgba(21, 51, 124, 1)"></rect><path d="M0,614.948C113.453,597.036,210.825,540.024,311.383,484.521C419.38,424.912,563.81,392.941,609.684,278.433C655.616,163.779,558.404,44.412,536.385,-77.121C515.411,-192.885,559.836,-329.431,483.355,-418.829C406.856,-508.247,267.036,-491.762,153.915,-524.185C41.685,-556.352,-62.847,-623.047,-178.697,-608.587C-303.799,-592.972,-436.244,-544.074,-509.394,-441.392C-581.339,-340.402,-567.745,-203.227,-555.367,-79.85C-545.049,22.998,-470.531,103.01,-444.734,203.103C-411.118,333.533,-480.533,502.43,-381.707,593.947C-286.278,682.318,-128.471,635.231,0,614.948" fill="#142f73"></path><path d="M1440 1126.7060000000001C1543.407 1119.7089999999998 1648.467 1115.896 1738.064 1063.797 1829.981 1010.3489999999999 1911.292 931.725 1947.345 831.697 1982.2649999999999 734.811 1948.036 630.9639999999999 1930.655 529.454 1913.75 430.72900000000004 1916.616 319.371 1847.248 247.118 1778.556 175.56799999999998 1668.615 170.92399999999998 1570.779 154.60700000000003 1483.285 140.015 1394.726 131.01799999999997 1310.079 157.531 1226.373 183.75 1153.78 235.933 1097.185 302.949 1041.074 369.392 1019.6179999999999 453.33299999999997 990.937 535.434 955.25 637.591 885.679 736.917 908.643 842.663 932.789 953.8530000000001 1014.49 1052.327 1114.835 1105.967 1212.597 1158.2269999999999 1329.399 1134.19 1440 1126.7060000000001" fill="#173785"></path></g><defs><mask id="SvgjsMask1081"><rect width="1440" height="600" fill="#ffffff"></rect></mask></defs></svg>