<svg width="129" height="128" viewBox="0 0 129 128" fill="none" xmlns="http://www.w3.org/2000/svg">
<path fill-rule="evenodd" clip-rule="evenodd" d="M64.7517 118.519C94.8615 118.519 119.27 94.1097 119.27 64C119.27 33.8903 94.8615 9.48148 64.7517 9.48148C34.642 9.48148 10.2332 33.8903 10.2332 64C10.2332 94.1097 34.642 118.519 64.7517 118.519ZM64.7517 128C100.098 128 128.752 99.3462 128.752 64C128.752 28.6538 100.098 0 64.7517 0C29.4055 0 0.751709 28.6538 0.751709 64C0.751709 99.3462 29.4055 128 64.7517 128Z" fill="white"/>
<path d="M29 65.8116C29 76.1598 43.0143 87.1048 52.8345 93.5724C47.5467 86.3862 38.9226 74.4351 38.9226 65.8116C38.9226 57.1881 47.5467 42.8869 52.8345 33.5448C43.0143 42.1683 29 55.4634 29 65.8116Z" fill="white"/>
<path fill-rule="evenodd" clip-rule="evenodd" d="M55.0711 30.8179C56.404 31.9164 56.755 33.8226 55.9017 35.3289C55.4355 36.1519 54.948 37.0056 54.4463 37.8842C52.0564 42.0694 49.3439 46.8195 47.0694 51.5159C44.2474 57.3427 42.4535 62.4054 42.4535 65.8098C42.4535 69.1264 44.1879 73.5711 46.9609 78.4538C49.6619 83.2096 53.0235 87.837 55.671 91.4323C56.6895 92.8154 56.5768 94.7345 55.4035 95.9872C54.2303 97.24 52.3337 97.4661 50.9022 96.524C45.9075 93.237 39.7084 88.7261 34.7192 83.6279C29.8781 78.681 25.469 72.475 25.469 65.8098C25.469 62.4443 26.5982 59.0958 28.2119 55.9789C29.8371 52.8395 32.0648 49.7229 34.5267 46.7616C39.4456 40.8449 45.5805 35.2179 50.5141 30.8888C51.8126 29.7495 53.7383 29.7195 55.0711 30.8179ZM34.4745 59.2642C33.1536 61.8157 32.531 64.0053 32.531 65.8098C32.531 69.0883 34.5988 72.9697 38.3262 77.1218C36.622 73.3888 35.3915 69.4718 35.3915 65.8098C35.3915 61.9148 36.7977 57.3617 38.6818 52.8863C36.9708 55.0751 35.533 57.2197 34.4745 59.2642Z" fill="white"/>
<path d="M100.503 65.8116C100.503 76.1598 86.4891 87.1048 76.6689 93.5724C81.9567 86.3862 90.5809 74.4351 90.5809 65.8116C90.5809 57.1881 81.9567 42.8869 76.6689 33.5448C86.4891 42.1683 100.503 55.4634 100.503 65.8116Z" fill="white"/>
<path fill-rule="evenodd" clip-rule="evenodd" d="M74.4323 30.8179C73.0994 31.9164 72.7485 33.8226 73.6017 35.3289C74.0679 36.1519 74.5554 37.0056 75.0571 37.8842C77.447 42.0694 80.1595 46.8195 82.434 51.5159C85.256 57.3427 87.0499 62.4054 87.0499 65.8098C87.0499 69.1264 85.3155 73.5711 82.5425 78.4538C79.8415 83.2096 76.48 87.837 73.8324 91.4323C72.8139 92.8154 72.9266 94.7345 74.0999 95.9872C75.2732 97.24 77.1697 97.4661 78.6013 96.524C83.5959 93.237 89.795 88.7261 94.7843 83.6279C99.6253 78.681 104.034 72.475 104.034 65.8098C104.034 62.4443 102.905 59.0958 101.292 55.9789C99.6663 52.8395 97.4386 49.7229 94.9767 46.7616C90.0578 40.8449 83.9229 35.2179 78.9893 30.8888C77.6908 29.7495 75.7651 29.7195 74.4323 30.8179ZM95.0289 59.2642C96.3498 61.8157 96.9724 64.0053 96.9724 65.8098C96.9724 69.0883 94.9046 72.9697 91.1772 77.1218C92.8815 73.3888 94.1119 69.4718 94.1119 65.8098C94.1119 61.9148 92.7058 57.3617 90.8216 52.8863C92.5326 55.0751 93.9704 57.2197 95.0289 59.2642Z" fill="white"/>
</svg>
